<svg xmlns="http://www.w3.org/2000/svg" viewBox="0 0 680 330" width="680" height="330" fill="none">
  <defs>
    <linearGradient id="blueGrad" x1="0" y1="0" x2="1" y2="0.6">
      <stop offset="0%" stop-color="#0A84FF"></stop>
      <stop offset="100%" stop-color="#5E5CE6"></stop>
    </linearGradient>
    <linearGradient id="greenGrad" x1="0" y1="0" x2="1" y2="0.6">
      <stop offset="0%" stop-color="#30D158"></stop>
      <stop offset="100%" stop-color="#25A244"></stop>
    </linearGradient>
    <linearGradient id="headerGrad" x1="0" y1="0" x2="0" y2="1">
      <stop offset="0%" stop-color="#1c1f26"></stop>
      <stop offset="100%" stop-color="#161b22"></stop>
    </linearGradient>
    <filter id="shadow" x="-4%" y="-10%" width="108%" height="130%">
      <feDropShadow dx="0" dy="2" stdDeviation="3" flood-color="#000000" flood-opacity="0.25"></feDropShadow>
    </filter>
    <clipPath id="cardClip">
      <rect width="680" height="330" rx="16"></rect>
    </clipPath>
  </defs>

  <g clip-path="url(#cardClip)">
    
    <rect width="680" height="330" rx="16" fill="#0d1117"></rect>
    <rect x="0.5" y="0.5" width="679" height="329" rx="15.5" fill="none" stroke="#30363d" stroke-width="1"></rect>

    
    <rect y="0" width="680" height="52" fill="url(#headerGrad)"></rect>
    <line x1="0" y1="52" x2="680" y2="52" stroke="#30363d" stroke-width="0.5"></line>

    
    <circle cx="30" cy="26" r="4.5" fill="#70a5fd"></circle>
    <circle cx="42" cy="26" r="4.5" fill="#70a5fd" opacity="0.5"></circle>
    <circle cx="54" cy="26" r="4.5" fill="#70a5fd" opacity="0.25"></circle>
    <text x="340" y="30" fill="#c9d1d9" font-family="-apple-system, BlinkMacSystemFont, &#39;Segoe UI&#39;, Helvetica, Arial, sans-serif" font-size="14" font-weight="600" text-anchor="middle">Messages</text>
    
    <text x="640" y="30" fill="#484f58" font-family="-apple-system, BlinkMacSystemFont, &#39;Segoe UI&#39;, Helvetica, Arial, sans-serif" font-size="11" font-weight="500" text-anchor="end">now</text>

    
    <rect x="28" y="70" width="440" height="46" rx="20" fill="url(#blueGrad)" filter="url(#shadow)"></rect>
    
    <path d="M28 96 L18 106 L28 100" fill="#0A84FF"></path>
    <text x="50" y="99" fill="#ffffff" font-family="-apple-system, BlinkMacSystemFont, &#39;Segoe UI&#39;, Helvetica, Arial, sans-serif" font-size="15" font-weight="500">Hey, I&#39;m Muhammad Abdullah Qadri</text>

    
    <rect x="28" y="132" width="370" height="46" rx="20" fill="url(#blueGrad)" filter="url(#shadow)"></rect>
    <text x="50" y="161" fill="#ffffff" font-family="-apple-system, BlinkMacSystemFont, &#39;Segoe UI&#39;, Helvetica, Arial, sans-serif" font-size="15" font-weight="500">Final-year AI Student &amp; Web3 Developer</text>

    
    <rect x="180" y="194" width="472" height="46" rx="20" fill="url(#greenGrad)" filter="url(#shadow)"></rect>
    
    <path d="M652 220 L662 230 L652 224" fill="#25A244"></path>
    <text x="202" y="223" fill="#ffffff" font-family="-apple-system, BlinkMacSystemFont, &#39;Segoe UI&#39;, Helvetica, Arial, sans-serif" font-size="14.5" font-weight="500">Building High-Performance Blockchain Applications</text>

    
    <rect x="28" y="256" width="400" height="46" rx="20" fill="url(#blueGrad)" filter="url(#shadow)"></rect>
    <text x="50" y="285" fill="#ffffff" font-family="-apple-system, BlinkMacSystemFont, &#39;Segoe UI&#39;, Helvetica, Arial, sans-serif" font-size="15" font-weight="500">Reach me at qadrinoobhere@icloud.com</text>

    
    <circle cx="36" cy="318" r="3" fill="#484f58" opacity="0.6"></circle>
    <circle cx="48" cy="318" r="3" fill="#484f58" opacity="0.4"></circle>
    <circle cx="60" cy="318" r="3" fill="#484f58" opacity="0.2"></circle>
  </g>
</svg>